<?xml version="1.0" standalone="no"?>
<!DOCTYPE svg PUBLIC "-//W3C//DTD SVG 20010904//EN"
 "http://www.w3.org/TR/2001/REC-SVG-20010904/DTD/svg10.dtd">
<svg version="1.0" xmlns="http://www.w3.org/2000/svg"
 width="300.000000pt" height="300.000000pt" viewBox="0 0 300.000000 300.000000"
 preserveAspectRatio="xMidYMid meet">
<metadata>
Created by potrace 1.14, written by Peter Selinger 2001-2017
</metadata>
<g transform="translate(0.000000,300.000000) scale(0.100000,-0.100000)"
fill="#51586a" stroke="none">
<path d="M320 2312 l0 -632 180 0 180 0 2 201 3 201 284 -292 284 -292 -286
-286 -287 -287 0 198 0 197 -180 0 -180 0 0 -632 0 -633 455 455 455 455 0
-455 0 -455 722 723 723 722 -723 722 -722 723 0 -455 0 -455 -455 455 -455
455 0 -633z m1840 -812 c0 -3 -128 -133 -285 -290 l-285 -285 0 200 0 200 87
87 88 88 -88 88 -87 87 0 205 1 205 284 -290 c156 -159 284 -292 285 -295z"/>
</g>
</svg>
